<?xml version="1.0" encoding="utf-8"?>
<!-- Generator: Adobe Illustrator 26.0.3, SVG Export Plug-In . SVG Version: 6.00 Build 0)  -->
<svg version="1.1" xmlns="http://www.w3.org/2000/svg" xmlns:xlink="http://www.w3.org/1999/xlink" x="0px" y="0px"
	 viewBox="0 0 80 118" style="enable-background:new 0 0 80 118;" xml:space="preserve">
<style type="text/css">
	.st0{fill:#FFFFFF;}
</style>
<g id="Calque_1">
	<g>
		<path class="st0" d="M55.8,93.1H24.2c-2,0-3.6-1.6-3.6-3.6v-60c0-2,1.6-3.6,3.6-3.6h31.6c2,0,3.6,1.6,3.6,3.6v60
			C59.4,91.5,57.8,93.1,55.8,93.1z M24.2,26.8c-1.5,0-2.7,1.2-2.7,2.7v60c0,1.5,1.2,2.7,2.7,2.7h31.6c1.5,0,2.7-1.2,2.7-2.7v-60
			c0-1.5-1.2-2.7-2.7-2.7H24.2z"/>
	</g>
	<g>
		<path class="st0" d="M26.3,33.7h27.4c1,0,1.8,0.8,1.8,1.8v48.1c0,1-0.8,1.8-1.8,1.8H26.3c-1,0-1.8-0.8-1.8-1.8V35.5
			C24.5,34.5,25.3,33.7,26.3,33.7z"/>
	</g>
</g>
<g id="Calque_2">
	<g>
		<path class="st0" d="M40,69.4c-19.4,0-39.5-3.3-39.5-8.7c0-3.4,7.5-5.5,13.8-6.7l0.2,1c-9.5,1.8-12.9,4.1-12.9,5.7
			c0,3.7,15.5,7.7,38.5,7.7c23,0,38.5-4,38.5-7.7c0-1.6-3.4-4-12.9-5.7l0.2-1c6.3,1.2,13.8,3.3,13.8,6.7
			C79.5,66.2,59.4,69.4,40,69.4z"/>
	</g>
	<g>
		<path class="st0" d="M40.5,117.5c-7.8,0-14-25.7-14-58.5s6.1-58.5,14-58.5c4.9,0,8.1,9.3,9.9,17.1l-1,0.2
			C47,7.5,43.7,1.5,40.5,1.5c-7,0-13,26.3-13,57.5c0,31.2,5.9,57.5,13,57.5c3.4,0,6.7-6.3,9.2-17.3l1,0.2
			C48,111,44.4,117.5,40.5,117.5z"/>
	</g>
</g>
<g id="Calque_3">
	<g>
		<polygon class="st0" points="68.1,60.4 64.3,54 70.5,50.3 71,51.2 65.6,54.4 68.9,59.9 		"/>
	</g>
	<g>
		<polygon class="st0" points="50,18.3 42.8,14.1 43.4,13.3 49.6,17 53.2,10.9 54.1,11.4 		"/>
	</g>
</g>
</svg>
