<svg width="29" height="29" viewBox="0 0 29 29" fill="none" xmlns="http://www.w3.org/2000/svg">
<path d="M15.6349 16.5063C15.5639 16.7275 15.5254 17.0709 15.5195 17.5365H13.1231C13.1586 16.5529 13.2532 15.8748 13.4071 15.5023C13.5609 15.1239 13.9574 14.6903 14.5964 14.2014L15.2444 13.7037C15.4574 13.5466 15.629 13.3749 15.7592 13.1886C15.9958 12.8685 16.1142 12.5164 16.1142 12.1322C16.1142 11.6899 15.9811 11.2883 15.7148 10.9274C15.4544 10.5607 14.9751 10.3774 14.2769 10.3774C13.5905 10.3774 13.1024 10.6014 12.8124 11.0496C12.5284 11.4978 12.3864 11.9634 12.3864 12.4465H9.82129C9.89229 10.7877 10.4811 9.61197 11.5876 8.91933C12.2858 8.47698 13.1438 8.2558 14.1615 8.2558C15.4988 8.2558 16.6083 8.5701 17.4899 9.19871C18.3775 9.82732 18.8213 10.7586 18.8213 11.9925C18.8213 12.7492 18.629 13.3865 18.2444 13.9046C18.0195 14.2189 17.5876 14.6205 16.9485 15.1094L16.3183 15.5896C15.9751 15.8515 15.7473 16.1571 15.6349 16.5063ZM15.7059 21.2558H13.0609V18.7326H15.7059V21.2558Z" fill="white"/>
</svg>
